<svg xmlns="http://www.w3.org/2000/svg" width="26" height="26" viewBox="0 0 26 26">
  <path id="instagram" d="M23.547,18.168a5.379,5.379,0,0,1-5.379,5.379H7.832a5.379,5.379,0,0,1-5.379-5.379V7.831A5.379,5.379,0,0,1,7.832,2.452H18.168a5.379,5.379,0,0,1,5.379,5.379V18.168ZM26,7.831A7.832,7.832,0,0,0,18.167,0H7.833A7.831,7.831,0,0,0,0,7.831V18.168A7.832,7.832,0,0,0,7.833,26H18.167A7.833,7.833,0,0,0,26,18.168ZM13.044,17.28a4.113,4.113,0,1,1,4.113-4.113,4.118,4.118,0,0,1-4.113,4.113Zm0-10.533a6.42,6.42,0,1,0,6.421,6.42,6.428,6.428,0,0,0-6.421-6.42Zm6.8-1.961a1.529,1.529,0,1,0,1.529,1.529A1.529,1.529,0,0,0,19.84,4.786Z"/>
</svg>
