<svg xmlns="http://www.w3.org/2000/svg" width="20" height="26" viewBox="0 0 20 26">
  <path id="facebook" d="M13.407,25.673c0,.181.242.327.542.327h7.729c.3,0,.542-.146.542-.327V12.9h5.6c.283,0,.517-.13.541-.3L28.9,8.749a.263.263,0,0,0-.141-.249.743.743,0,0,0-.4-.106H22.221V5.663c0-.64.858-1.159,1.918-1.159h4.319c.3,0,.542-.146.542-.327V.327C29,.147,28.757,0,28.458,0h-7.3c-4.282,0-7.753,2.1-7.753,4.682V8.394H9.542c-.3,0-.541.146-.542.327v3.85c0,.181.242.327.542.327h3.865Z" transform="translate(-9)" fill-rule="evenodd"/>
</svg>
