<svg xmlns="http://www.w3.org/2000/svg" width="26" height="26" viewBox="0 0 26 26">
  <path id="twitter" d="M25.9,6.117a9.306,9.306,0,0,1-2.626.91c.422-.087,1.046-1.016,1.3-1.393A6.328,6.328,0,0,0,25.447,3.7c.023-.055.041-.124,0-.167a.13.13,0,0,0-.14.015A12.088,12.088,0,0,1,22.183,5a.186.186,0,0,1-.215-.069,2.877,2.877,0,0,0-.272-.339,5.463,5.463,0,0,0-1.511-1.124,4.437,4.437,0,0,0-2.318-.454,4.829,4.829,0,0,0-2.2.755,6.063,6.063,0,0,0-1.773,1.758A7.246,7.246,0,0,0,12.834,8.1a8.483,8.483,0,0,0-.057,2.719c.018.152.007.173-.106.152A15.882,15.882,0,0,1,1.95,4.351c-.125-.174-.193-.174-.3.013a7.686,7.686,0,0,0,.926,7.8c.21.242.426.483.659.7a4.712,4.712,0,0,1-2.069-.7c-.125-.1-.188-.04-.2.131a4.767,4.767,0,0,0,.034.746,6.617,6.617,0,0,0,3.388,5.32,2.8,2.8,0,0,0,.687.254,5.071,5.071,0,0,1-2.029.077c-.148-.036-.2.054-.148.227A6.079,6.079,0,0,0,7.167,23.25c.193.041.387.041.58.1-.011.021-.023.021-.034.041-.479.886-2.138,1.546-2.911,1.874a8.74,8.74,0,0,1-4.422.687c-.237-.042-.288-.039-.352,0s-.008.118.068.192c.3.242.608.456.921.663a13.221,13.221,0,0,0,2.956,1.435A13.8,13.8,0,0,0,19.256,23.9c3.131-3.778,4.228-8.987,4.228-14.2,0-.2.2-.316.317-.424a11.783,11.783,0,0,0,2.07-2.626.887.887,0,0,0,.128-.5V6.117C26,6.034,26.008,6.059,25.9,6.117Z" transform="translate(0 -2.999)" fill-rule="evenodd"/>
</svg>
